DataType=double
version=3
OpenSimVersion=4.5-2024-01-10-34fd6af
endheader
time	ground_force_2_vx	ground_force_2_vy	ground_force_2_vz	ground_force_2_px	ground_force_2_py	ground_force_2_pz	ground_moment_2_mx	ground_moment_2_my	ground_moment_2_mz	ground_force_1_vx	ground_force_1_vy	ground_force_1_vz	ground_force_1_px	ground_force_1_py	ground_force_1_pz	ground_moment_1_mx	ground_moment_1_my	ground_moment_1_mz
38.86	23.5468971373914	749.4453788629579	-69.48485630191547	0.9565907206490498	0.01929718473203197	0.5929810417542517	0	-0.9872978404429904	0	19.28096941616213	68.86201749609251	-7.735711693795274	1.254049606409956	0.01929718473203197	0.3692685492532714	0	0.03667041353853273	0
38.87	25.3693891218097	739.5528073835563	-69.2534655979731	0.9527375148469812	0.01929718473203197	0.5937834239435144	0	-1.097932224027933	0	21.04518450084997	98.31021600583074	-8.258722500860088	1.240432301396202	0.01929718473203197	0.3754841488103764	0	0.1089074900082274	0
38.88	27.28320107630868	726.0885238017954	-68.49545591110382	0.9488943138222171	0.01929718473203197	0.5945585410363216	0	-1.160124819728509	0	20.9137960887159	132.3605200006406	-8.175504431602697	1.22959060935246	0.01929718473203197	0.3800294674511297	0	0.2083847476188097	0
38.89	29.21334827861356	708.4260266524782	-67.15104249279135	0.9450471020169606	0.01929718473203197	0.5952993773951342	0	-1.177657228814067	0	18.52948725017014	170.1904395260058	-7.259694855391729	1.22157459662879	0.01929718473203197	0.3828998356376141	0	0.3362570158441918	0
38.9	31.09017214461376	686.0108576537573	-65.17850009167091	0.9411871023083802	0.01929718473203197	0.5960009954900977	0	-1.159653790515168	0	13.9334063276959	210.7818850153664	-5.263823497896936	1.216141351724806	0.01929718473203197	0.384237912537026	0	0.4905354966747992	0
38.91	32.84279440547825	658.431010052587	-62.57074300370181	0.9373062904086475	0.01929718473203197	0.5966596028404604	0	-1.119190762837456	0	7.52889451244985	252.975235151679	-1.996939570654867	1.212807192201166	0.01929718473203197	0.3842840246385223	0	0.6650473878810851	0
38.92	34.36919115217438	625.4862964493669	-59.36645563450656	0.9333937017851399	0.01929718473203197	0.5972715919810355	0	-1.070301703446997	0	-0.05192642304640849	295.4893222301991	2.594030306319418	1.210890534886654	0.01929718473203197	0.3833390376730222	0	0.8487200990523264	0
38.93	35.50914768666261	587.2453147127551	-55.6462712984645	0.9294333304529799	0.01929718473203197	0.5978330014813487	0	-1.024283629546674	0	-8.102879698014149	337.0038501509969	8.38162662361972	1.209600443186621	0.01929718473203197	0.3817292398434542	0	1.026310124734538	0
38.94	36.05195212634207	544.0796807402426	-51.51372445968369	0.9254034396924432	0.01929718473203197	0.5983392401464568	0	-0.9866533990616648	0	-15.97200402650776	376.3778692668225	15.06619264238699	1.208185909423011	0.01929718473203197	0.3797647587114188	0	1.181441774710623	0
38.95	35.78529817272601	496.6684988535737	-47.0714495555926	0.9212761064816819	0.01929718473203197	0.5987841352794486	0	-0.9560107668295583	0	-23.141740626845	412.9097460836383	22.23060342495873	1.20607925395899	0.01929718473203197	0.3776998087854067	0	1.30096590564054	0
38.96	34.55970437390777	445.9672613132507	-42.40633464379421	0.9170171385542654	0.01929718473203197	0.5991576208224404	0	-0.9252827190661896	0	-29.2556832387702	446.4593779725236	29.42273079050869	1.202960441237994	0.01929718473203197	0.3757113044797081	0	1.378456419052882	0
38.97	32.33654761210792	393.1407095489156	-37.59079604078598	0.9125881081345223	0.01929718473203197	0.5994421721832559	0	-0.8847487013864188	0	-34.10489582173186	477.3661821722073	36.23487981332426	1.198737882211684	0.01929718473203197	0.3739002990621233	0	1.415414118471428	0
38.98	29.19908375512058	339.4764988877677	-32.69633340965962	0.9079511230909967	0.01929718473203197	0.5996089754521985	0	-0.8256421766149107	0	-37.59667156892428	506.2352542330067	42.35692816817081	1.193485407531505	0.01929718473203197	0.3723077946765587	0	1.420136944708148	0
38.99	25.31685064640872	286.3135895926859	-27.80743759380577	0.9030745178814397	0.01929718473203197	0.5996161378713343	0	-0.743276240457807	0	-39.72403781095176	533.7006269437675	47.59900550753571	1.187371643645659	0.01929718473203197	0.3709346945387982	0	1.405085618314698	0
39	20.88710189102387	234.992620403008	-23.02366320166865	0.8979402509039195	0.01929718473203197	0.599411113960806	0	-0.6389119517122068	0	-40.54501835526388	560.2443000051707	51.89081258110743	1.180601801243912	0.01929718473203197	0.3697593405222321	0	1.383836415418099	0
39.01	16.11630385229417	186.7937505463664	-18.4483397262245	0.8925580696238062	0.01929718473203197	0.598936920573731	0	-0.5196617570753097	0	-40.1726646528921	586.1061589741507	55.26598032535721	1.173379239596609	0.01929718473203197	0.3687498176500991	0	1.36855152584054	0
39.02	11.26730142906314	142.8564676597301	-14.17887556676753	0.8869850403808742	0.01929718473203197	0.5981401030405663	0	-0.3963386632608221	0	-38.77060325812639	611.2809014168356	57.83774186133112	1.165885684178788	0.01929718473203197	0.3678710371578962	0	1.368481642762989	0
39.03	6.701471897592077	104.1168837787433	-10.31320054804404	0.8813406829039475	0.01929718473203197	0.5969793144949896	0	-0.2802593951507071	0	-36.54623638545773	635.572473652695	59.77012390342253	1.158274389213793	0.01929718473203197	0.3670882226877517	0	1.389526128409707	0
39.04	2.825235046508807	71.25859343439794	-6.958566220969413	0.8758146600229841	0.01929718473203197	0.5954321190429871	0	-0.1803176121439922	0	-33.7360179581265	658.6705907690975	61.2478747886848	1.1506699333799	0.01929718473203197	0.3663686063283906	0	1.434516385080995	0
39.05	-0.05441845534408252	44.64163073676502	-4.212863358551996	0.8706784248455711	0.01929718473203197	0.593501496565298	0	-0.1012391367540377	0	-30.58225829486739	680.2230246074658	62.44837395779005	1.143170245641509	0.01929718473203197	0.3656824360560221	0	1.503787800701671	0
39.06	-1.855403942780999	24.22812065124504	-2.122375692811712	0.8663155207990146	0.01929718473203197	0.5912373432179969	0	-0.04356347443439423	0	-27.3057594839743	699.8899116546509	63.51895857314637	1.135848695787349	0.01929718473203197	0.3650037362117653	0	1.595727392622056	0
39.07	-2.719951294811668	9.567580879225659	-0.657345463895382	0.8632294281589558	0.01929718473203197	0.5887638782827235	0	-0.00500151071758137	0	-24.08155431187731	717.376111589969	64.56247585117686	1.128755641611672	0.01929718473203197	0.3643109862117082	0	1.70719951997569	0
39.08	-2.902694865668394	-0.1271432505391203	0.2725843795810619	0.8619380116165547	0.01929718473203197	0.5862603382595908	0	0.01802669743342178	0	-21.02483999662573	732.4448271374854	65.63200970733162	1.121919767462973	0.01929718473203197	0.363587726147257	0	1.8339398223121	0
39.09	-2.656715692853012	-5.835868942040349	0.7840241425784669	0.8627997896933993	0.01929718473203197	0.5838945830823629	0	0.02938741597218208	0	-18.19060836220787	744.9202427708494	66.73359576274724	1.115349947770631	0.01929718473203197	0.3628229213566427	0	1.971058800851893	0
39.1	-2.182909800935141	-8.572502711884795	0.993164749849889	0.8659403882261502	0.01929718473203197	0.581779623420467	0	0.03267689769151527	0	-15.58555824838003	754.687676847768	67.83503124842382	1.10903821380232	0.01929718473203197	0.3620108596513631	0	2.113672221339042	0
39.11	-1.624637150752662	-9.262970859423035	1.002173233243703	0.8713044144174616	0.01929718473203197	0.5799763855709964	0	0.03092906619457381	0	-13.18724066338346	761.6971492872196	68.87952344866352	1.102963916940878	0.01929718473203197	0.361150474261263	0	2.257488512225905	0
39.12	-1.075612743693876	-8.678192075314257	0.8935674090572192	0.8787326133598495	0.01929718473203197	0.5785107808489822	0	0.02650559475061143	0	-10.96394261817569	765.9720061553339	69.8028130637887	1.097098641064632	0.01929718473203197	0.3602441919443175	0	2.399115927573025	0
39.13	-0.5901020081095147	-7.411982942023201	0.7290982923899989	0.8880187844939481	0.01929718473203197	0.5773879467321035	0	0.02110515794376533	0	-8.889509659594026	767.6198586777057	70.55069448916046	1.091410994995722	0.01929718473203197	0.3592966001658827	0	2.535979928132846	0
